<mxfile host="Electron" agent="Mozilla/5.0 (Windows NT 10.0; Win64; x64) AppleWebKit/537.36 (KHTML, like Gecko) draw.io/26.0.16 Chrome/132.0.6834.196 Electron/34.2.0 Safari/537.36" version="26.0.16">
  <diagram name="Страница — 1" id="HQP69Ss3XwgF8musekIA">
    <mxGraphModel dx="1579" dy="516" grid="0" gridSize="10" guides="1" tooltips="1" connect="1" arrows="1" fold="1" page="1" pageScale="1" pageWidth="827" pageHeight="1169" math="0" shadow="0">
      <root>
        <mxCell id="0" />
        <mxCell id="1" parent="0" />
        <mxCell id="fU4kAHU2XoJDbtXaz-NY-5" value="" style="endArrow=none;dashed=1;html=1;dashPattern=1 3;strokeWidth=2;rounded=0;entryX=0.5;entryY=1;entryDx=0;entryDy=0;" parent="1" source="fU4kAHU2XoJDbtXaz-NY-54" edge="1">
          <mxGeometry width="50" height="50" relative="1" as="geometry">
            <mxPoint x="100" y="770" as="sourcePoint" />
            <mxPoint x="100" y="240" as="targetPoint" />
          </mxGeometry>
        </mxCell>
        <mxCell id="fU4kAHU2XoJDbtXaz-NY-6" value="" style="endArrow=none;dashed=1;html=1;dashPattern=1 3;strokeWidth=2;rounded=0;entryX=0.5;entryY=1;entryDx=0;entryDy=0;" parent="1" source="fU4kAHU2XoJDbtXaz-NY-9" edge="1">
          <mxGeometry width="50" height="50" relative="1" as="geometry">
            <mxPoint x="299.71000000000004" y="500" as="sourcePoint" />
            <mxPoint x="295" y="240" as="targetPoint" />
          </mxGeometry>
        </mxCell>
        <mxCell id="fU4kAHU2XoJDbtXaz-NY-7" value="" style="endArrow=none;dashed=1;html=1;dashPattern=1 3;strokeWidth=2;rounded=0;entryX=0.5;entryY=1;entryDx=0;entryDy=0;" parent="1" source="fU4kAHU2XoJDbtXaz-NY-15" edge="1">
          <mxGeometry width="50" height="50" relative="1" as="geometry">
            <mxPoint x="499.5" y="500" as="sourcePoint" />
            <mxPoint x="499.5" y="240" as="targetPoint" />
          </mxGeometry>
        </mxCell>
        <mxCell id="fU4kAHU2XoJDbtXaz-NY-8" value="" style="endArrow=none;dashed=1;html=1;dashPattern=1 3;strokeWidth=2;rounded=0;entryX=0.5;entryY=1;entryDx=0;entryDy=0;" parent="1" source="fU4kAHU2XoJDbtXaz-NY-20" edge="1">
          <mxGeometry width="50" height="50" relative="1" as="geometry">
            <mxPoint x="700" y="640" as="sourcePoint" />
            <mxPoint x="697" y="240" as="targetPoint" />
          </mxGeometry>
        </mxCell>
        <mxCell id="fU4kAHU2XoJDbtXaz-NY-12" value="" style="endArrow=none;dashed=1;html=1;dashPattern=1 3;strokeWidth=2;rounded=0;entryX=0.5;entryY=1;entryDx=0;entryDy=0;exitX=0.5;exitY=0;exitDx=0;exitDy=0;" parent="1" source="7s_6bpgOeVNkU8TUFnK5-3" target="fU4kAHU2XoJDbtXaz-NY-9" edge="1">
          <mxGeometry width="50" height="50" relative="1" as="geometry">
            <mxPoint x="295" y="608" as="sourcePoint" />
            <mxPoint x="299.71000000000004" y="240" as="targetPoint" />
          </mxGeometry>
        </mxCell>
        <mxCell id="fU4kAHU2XoJDbtXaz-NY-9" value="" style="rounded=0;whiteSpace=wrap;html=1;" parent="1" vertex="1">
          <mxGeometry x="290" y="278" width="10" height="203" as="geometry" />
        </mxCell>
        <mxCell id="fU4kAHU2XoJDbtXaz-NY-14" value="" style="endArrow=open;dashed=1;html=1;dashPattern=1 3;strokeWidth=2;rounded=0;endFill=0;entryX=1.011;entryY=0.156;entryDx=0;entryDy=0;entryPerimeter=0;" parent="1" edge="1">
          <mxGeometry width="50" height="50" relative="1" as="geometry">
            <mxPoint x="294.89" y="600.1" as="sourcePoint" />
            <mxPoint x="105.00000000000013" y="599" as="targetPoint" />
          </mxGeometry>
        </mxCell>
        <mxCell id="fU4kAHU2XoJDbtXaz-NY-16" value="" style="endArrow=none;dashed=1;html=1;dashPattern=1 3;strokeWidth=2;rounded=0;entryX=0.5;entryY=1;entryDx=0;entryDy=0;" parent="1" target="fU4kAHU2XoJDbtXaz-NY-15" edge="1">
          <mxGeometry width="50" height="50" relative="1" as="geometry">
            <mxPoint x="500" y="610" as="sourcePoint" />
            <mxPoint x="499.5" y="230" as="targetPoint" />
          </mxGeometry>
        </mxCell>
        <mxCell id="fU4kAHU2XoJDbtXaz-NY-15" value="" style="rounded=0;whiteSpace=wrap;html=1;" parent="1" vertex="1">
          <mxGeometry x="495" y="374" width="10" height="157" as="geometry" />
        </mxCell>
        <mxCell id="fU4kAHU2XoJDbtXaz-NY-17" value="" style="endArrow=classic;html=1;rounded=0;exitX=1.042;exitY=0.531;exitDx=0;exitDy=0;exitPerimeter=0;entryX=0.146;entryY=0.075;entryDx=0;entryDy=0;entryPerimeter=0;" parent="1" edge="1" target="fU4kAHU2XoJDbtXaz-NY-15" source="fU4kAHU2XoJDbtXaz-NY-9">
          <mxGeometry width="50" height="50" relative="1" as="geometry">
            <mxPoint x="300" y="390" as="sourcePoint" />
            <mxPoint x="495" y="390" as="targetPoint" />
          </mxGeometry>
        </mxCell>
        <mxCell id="fU4kAHU2XoJDbtXaz-NY-19" value="" style="endArrow=classic;html=1;rounded=0;exitX=0.997;exitY=0.141;exitDx=0;exitDy=0;exitPerimeter=0;" parent="1" edge="1" source="fU4kAHU2XoJDbtXaz-NY-39">
          <mxGeometry width="50" height="50" relative="1" as="geometry">
            <mxPoint x="300" y="670" as="sourcePoint" />
            <mxPoint x="694" y="673" as="targetPoint" />
          </mxGeometry>
        </mxCell>
        <mxCell id="fU4kAHU2XoJDbtXaz-NY-21" value="" style="endArrow=none;dashed=1;html=1;dashPattern=1 3;strokeWidth=2;rounded=0;entryX=0.5;entryY=1;entryDx=0;entryDy=0;" parent="1" target="fU4kAHU2XoJDbtXaz-NY-20" edge="1">
          <mxGeometry width="50" height="50" relative="1" as="geometry">
            <mxPoint x="700" y="780" as="sourcePoint" />
            <mxPoint x="699.73" y="605" as="targetPoint" />
          </mxGeometry>
        </mxCell>
        <mxCell id="fU4kAHU2XoJDbtXaz-NY-20" value="" style="rounded=0;whiteSpace=wrap;html=1;" parent="1" vertex="1">
          <mxGeometry x="695" y="636" width="10" height="54" as="geometry" />
        </mxCell>
        <mxCell id="fU4kAHU2XoJDbtXaz-NY-25" value="&lt;span style=&quot;color: rgba(0, 0, 0, 0); font-family: monospace; font-size: 0px; text-align: start;&quot;&gt;%3CmxGraphModel%3E%3Croot%3E%3CmxCell%20id%3D%220%22%2F%3E%3CmxCell%20id%3D%221%22%20parent%3D%220%22%2F%3E%3CmxCell%20id%3D%222%22%20value%3D%22%26lt%3Bspan%20style%3D%26quot%3Bcolor%3A%20rgba(0%2C%200%2C%200%2C%200)%3B%20font-family%3A%20monospace%3B%20font-size%3A%200px%3B%20text-align%3A%20start%3B%26quot%3B%26gt%3B%253CmxGraphModel%253E%253Croot%253E%253CmxCell%2520id%253D%25220%2522%252F%253E%253CmxCell%2520id%253D%25221%2522%2520parent%253D%25220%2522%252F%253E%253CmxCell%2520id%253D%25222%2522%2520value%253D%2522%2522%2520style%253D%2522rounded%253D0%253BwhiteSpace%253Dwrap%253Bhtml%253D1%253B%2522%2520vertex%253D%25221%2522%2520parent%253D%25221%2522%253E%253CmxGeometry%2520x%253D%2522495%2522%2520y%253D%2522400%2522%2520width%253D%252210%2522%2520height%253D%252280%2522%2520as%253D%2522geometry%2522%252F%253E%253C%252FmxCell%253E%253C%252Froot%253E%253C%252FmxGraphModel%253E%26lt%3B%2Fspan%26gt%3B%D0%A1%D0%BE%D0%B7%D0%B4%D0%B0%D1%82%D1%8C%20%D1%80%D0%B0%D1%81%D0%BF%D0%B8%D1%81%D0%B0%D0%BD%D0%B8%D0%B5%22%20style%3D%22text%3Bhtml%3D1%3Balign%3Dcenter%3BverticalAlign%3Dmiddle%3Bresizable%3D0%3Bpoints%3D%5B%5D%3Bautosize%3D1%3BstrokeColor%3Dnone%3BfillColor%3Dnone%3B%22%20vertex%3D%221%22%20parent%3D%221%22%3E%3CmxGeometry%20x%3D%22125%22%20y%3D%22248%22%20width%3D%22140%22%20height%3D%2230%22%20as%3D%22geometry%22%2F%3E%3C%2FmxCell%3E%3C%2Froot%3E%3C%2FmxGraphModel%3E&lt;/span&gt;" style="text;html=1;align=center;verticalAlign=middle;resizable=0;points=[];autosize=1;strokeColor=none;fillColor=none;" parent="1" vertex="1">
          <mxGeometry x="195" y="310" width="20" height="30" as="geometry" />
        </mxCell>
        <mxCell id="fU4kAHU2XoJDbtXaz-NY-26" value="3. Расписание создано" style="text;whiteSpace=wrap;html=1;" parent="1" vertex="1">
          <mxGeometry x="128" y="576" width="135" height="40" as="geometry" />
        </mxCell>
        <mxCell id="fU4kAHU2XoJDbtXaz-NY-27" value="2.Проверить доступность актеров" style="text;whiteSpace=wrap;html=1;" parent="1" vertex="1">
          <mxGeometry x="302" y="340" width="210" height="25" as="geometry" />
        </mxCell>
        <mxCell id="fU4kAHU2XoJDbtXaz-NY-30" value="5. Уведомление о спектакле" style="text;whiteSpace=wrap;html=1;" parent="1" vertex="1">
          <mxGeometry x="404" y="649" width="180" height="30" as="geometry" />
        </mxCell>
        <mxCell id="fU4kAHU2XoJDbtXaz-NY-40" value="" style="endArrow=none;dashed=1;html=1;dashPattern=1 3;strokeWidth=2;rounded=0;entryX=0.5;entryY=1;entryDx=0;entryDy=0;" parent="1" target="fU4kAHU2XoJDbtXaz-NY-39" edge="1">
          <mxGeometry width="50" height="50" relative="1" as="geometry">
            <mxPoint x="293" y="822" as="sourcePoint" />
            <mxPoint x="295" y="605" as="targetPoint" />
          </mxGeometry>
        </mxCell>
        <mxCell id="fU4kAHU2XoJDbtXaz-NY-39" value="" style="rounded=0;whiteSpace=wrap;html=1;" parent="1" vertex="1">
          <mxGeometry x="290" y="655" width="10" height="148" as="geometry" />
        </mxCell>
        <mxCell id="fU4kAHU2XoJDbtXaz-NY-41" value="" style="endArrow=classic;html=1;rounded=0;" parent="1" edge="1">
          <mxGeometry width="50" height="50" relative="1" as="geometry">
            <mxPoint x="700" y="767" as="sourcePoint" />
            <mxPoint x="300" y="769" as="targetPoint" />
          </mxGeometry>
        </mxCell>
        <mxCell id="fU4kAHU2XoJDbtXaz-NY-42" value="6. Отзыв" style="text;html=1;align=center;verticalAlign=middle;resizable=0;points=[];autosize=1;strokeColor=none;fillColor=none;" parent="1" vertex="1">
          <mxGeometry x="457" y="742" width="67" height="26" as="geometry" />
        </mxCell>
        <mxCell id="fU4kAHU2XoJDbtXaz-NY-46" value="" style="endArrow=classic;html=1;rounded=0;" parent="1" edge="1">
          <mxGeometry width="50" height="50" relative="1" as="geometry">
            <mxPoint x="150" y="920" as="sourcePoint" />
            <mxPoint x="290" y="920" as="targetPoint" />
          </mxGeometry>
        </mxCell>
        <mxCell id="fU4kAHU2XoJDbtXaz-NY-47" value="" style="endArrow=classic;html=1;rounded=0;" parent="1" edge="1">
          <mxGeometry width="50" height="50" relative="1" as="geometry">
            <mxPoint x="290" y="960" as="sourcePoint" />
            <mxPoint x="150" y="960" as="targetPoint" />
          </mxGeometry>
        </mxCell>
        <mxCell id="fU4kAHU2XoJDbtXaz-NY-48" value="Администратор" style="shape=umlActor;verticalLabelPosition=bottom;verticalAlign=top;html=1;outlineConnect=0;" parent="1" vertex="1">
          <mxGeometry x="107.5" y="910" width="30" height="60" as="geometry" />
        </mxCell>
        <mxCell id="fU4kAHU2XoJDbtXaz-NY-49" value="Система" style="ellipse;shape=umlControl;whiteSpace=wrap;html=1;" parent="1" vertex="1">
          <mxGeometry x="300" y="900" width="70" height="80" as="geometry" />
        </mxCell>
        <mxCell id="fU4kAHU2XoJDbtXaz-NY-50" value="Актёр" style="shape=umlActor;verticalLabelPosition=bottom;verticalAlign=top;html=1;outlineConnect=0;" parent="1" vertex="1">
          <mxGeometry x="505" y="910" width="30" height="60" as="geometry" />
        </mxCell>
        <mxCell id="fU4kAHU2XoJDbtXaz-NY-51" value="Зритель" style="shape=umlActor;verticalLabelPosition=bottom;verticalAlign=top;html=1;outlineConnect=0;" parent="1" vertex="1">
          <mxGeometry x="320" y="1080" width="30" height="60" as="geometry" />
        </mxCell>
        <mxCell id="fU4kAHU2XoJDbtXaz-NY-52" value="" style="endArrow=none;html=1;rounded=0;" parent="1" edge="1">
          <mxGeometry width="50" height="50" relative="1" as="geometry">
            <mxPoint x="150" y="940" as="sourcePoint" />
            <mxPoint x="290" y="940" as="targetPoint" />
          </mxGeometry>
        </mxCell>
        <mxCell id="fU4kAHU2XoJDbtXaz-NY-56" value="" style="endArrow=none;dashed=1;html=1;dashPattern=1 3;strokeWidth=2;rounded=0;entryX=0.5;entryY=1;entryDx=0;entryDy=0;" parent="1" target="fU4kAHU2XoJDbtXaz-NY-54" edge="1">
          <mxGeometry width="50" height="50" relative="1" as="geometry">
            <mxPoint x="100" y="830" as="sourcePoint" />
            <mxPoint x="100" y="260" as="targetPoint" />
          </mxGeometry>
        </mxCell>
        <mxCell id="fU4kAHU2XoJDbtXaz-NY-54" value="" style="rounded=0;whiteSpace=wrap;html=1;" parent="1" vertex="1">
          <mxGeometry x="95" y="275" width="10" height="525" as="geometry" />
        </mxCell>
        <mxCell id="fU4kAHU2XoJDbtXaz-NY-57" value="" style="endArrow=classic;html=1;rounded=0;entryX=0.75;entryY=1;entryDx=0;entryDy=0;" parent="1" target="fU4kAHU2XoJDbtXaz-NY-54" edge="1">
          <mxGeometry width="50" height="50" relative="1" as="geometry">
            <mxPoint x="290" y="800" as="sourcePoint" />
            <mxPoint x="300" y="880" as="targetPoint" />
          </mxGeometry>
        </mxCell>
        <mxCell id="fU4kAHU2XoJDbtXaz-NY-58" value="7. Отзыв" style="text;html=1;align=center;verticalAlign=middle;resizable=0;points=[];autosize=1;strokeColor=none;fillColor=none;" parent="1" vertex="1">
          <mxGeometry x="162" y="772" width="67" height="26" as="geometry" />
        </mxCell>
        <mxCell id="fU4kAHU2XoJDbtXaz-NY-60" value="" style="endArrow=classic;html=1;rounded=0;" parent="1" edge="1">
          <mxGeometry width="50" height="50" relative="1" as="geometry">
            <mxPoint x="380" y="920" as="sourcePoint" />
            <mxPoint x="490" y="920" as="targetPoint" />
          </mxGeometry>
        </mxCell>
        <mxCell id="fU4kAHU2XoJDbtXaz-NY-61" value="" style="endArrow=none;html=1;rounded=0;" parent="1" edge="1">
          <mxGeometry width="50" height="50" relative="1" as="geometry">
            <mxPoint x="380" y="939.72" as="sourcePoint" />
            <mxPoint x="490" y="940" as="targetPoint" />
          </mxGeometry>
        </mxCell>
        <mxCell id="fU4kAHU2XoJDbtXaz-NY-62" value="" style="endArrow=classic;html=1;rounded=0;" parent="1" edge="1">
          <mxGeometry width="50" height="50" relative="1" as="geometry">
            <mxPoint x="490" y="960" as="sourcePoint" />
            <mxPoint x="380" y="960" as="targetPoint" />
          </mxGeometry>
        </mxCell>
        <mxCell id="fU4kAHU2XoJDbtXaz-NY-66" value="" style="endArrow=classic;html=1;rounded=0;" parent="1" edge="1">
          <mxGeometry width="50" height="50" relative="1" as="geometry">
            <mxPoint x="360" y="990" as="sourcePoint" />
            <mxPoint x="360" y="1070" as="targetPoint" />
          </mxGeometry>
        </mxCell>
        <mxCell id="fU4kAHU2XoJDbtXaz-NY-67" value="" style="endArrow=none;html=1;rounded=0;" parent="1" edge="1">
          <mxGeometry width="50" height="50" relative="1" as="geometry">
            <mxPoint x="335" y="1070" as="sourcePoint" />
            <mxPoint x="334.77" y="990" as="targetPoint" />
          </mxGeometry>
        </mxCell>
        <mxCell id="fU4kAHU2XoJDbtXaz-NY-68" value="" style="endArrow=classic;html=1;rounded=0;" parent="1" edge="1">
          <mxGeometry width="50" height="50" relative="1" as="geometry">
            <mxPoint x="310" y="1070" as="sourcePoint" />
            <mxPoint x="310" y="990" as="targetPoint" />
          </mxGeometry>
        </mxCell>
        <mxCell id="fU4kAHU2XoJDbtXaz-NY-76" value="&lt;span style=&quot;text-wrap-mode: nowrap; color: rgba(0, 0, 0, 0); font-family: monospace; font-size: 0px; text-align: start;&quot;&gt;%3CmxGraphModel%3E%3Croot%3E%3CmxCell%20id%3D%220%22%2F%3E%3CmxCell%20id%3D%221%22%20parent%3D%220%22%2F%3E%3CmxCell%20id%3D%222%22%20value%3D%22%22%20style%3D%22rounded%3D0%3BwhiteSpace%3Dwrap%3Bhtml%3D1%3B%22%20vertex%3D%221%22%20parent%3D%221%22%3E%3CmxGeometry%20x%3D%22495%22%20y%3D%22400%22%20width%3D%2210%22%20height%3D%2280%22%20as%3D%22geometry%22%2F%3E%3C%2FmxCell%3E%3C%2Froot%3E%3C%2FmxGraphModel%3E&lt;/span&gt;&lt;span style=&quot;text-wrap-mode: nowrap;&quot;&gt;1.Запрос создания&amp;nbsp;&lt;/span&gt;&lt;div&gt;&lt;span style=&quot;text-wrap-mode: nowrap;&quot;&gt;расписания&lt;/span&gt;&lt;/div&gt;" style="text;html=1;align=center;verticalAlign=middle;whiteSpace=wrap;rounded=0;" parent="1" vertex="1">
          <mxGeometry x="162.5" y="890" width="110" height="30" as="geometry" />
        </mxCell>
        <mxCell id="fU4kAHU2XoJDbtXaz-NY-77" value="2.Запрос данных актёров" style="text;html=1;align=center;verticalAlign=middle;whiteSpace=wrap;rounded=0;" parent="1" vertex="1">
          <mxGeometry x="370" y="890" width="110" height="30" as="geometry" />
        </mxCell>
        <mxCell id="fU4kAHU2XoJDbtXaz-NY-78" value="3.Отправка данных актёров" style="text;html=1;align=center;verticalAlign=middle;whiteSpace=wrap;rounded=0;" parent="1" vertex="1">
          <mxGeometry x="375" y="970" width="120" height="30" as="geometry" />
        </mxCell>
        <mxCell id="fU4kAHU2XoJDbtXaz-NY-79" value="5.Рассылка уведомлений Зрителям." style="text;html=1;align=center;verticalAlign=middle;whiteSpace=wrap;rounded=0;" parent="1" vertex="1">
          <mxGeometry x="365" y="1020" width="80" height="40" as="geometry" />
        </mxCell>
        <mxCell id="fU4kAHU2XoJDbtXaz-NY-80" value="6.Написание&amp;nbsp; &amp;nbsp;отзыва." style="text;html=1;align=center;verticalAlign=middle;whiteSpace=wrap;rounded=0;" parent="1" vertex="1">
          <mxGeometry x="225" y="1020" width="80" height="40" as="geometry" />
        </mxCell>
        <mxCell id="fU4kAHU2XoJDbtXaz-NY-81" value="4.Успешное создание расписания" style="text;html=1;align=center;verticalAlign=middle;whiteSpace=wrap;rounded=0;" parent="1" vertex="1">
          <mxGeometry x="162.5" y="960" width="127.5" height="40" as="geometry" />
        </mxCell>
        <mxCell id="xJSxzTxG-TaLfhghDVZM-6" value="" style="endArrow=none;dashed=1;html=1;dashPattern=1 3;strokeWidth=2;rounded=0;entryX=0.5;entryY=1;entryDx=0;entryDy=0;" parent="1" source="xJSxzTxG-TaLfhghDVZM-10" edge="1">
          <mxGeometry width="50" height="50" relative="1" as="geometry">
            <mxPoint x="908" y="728" as="sourcePoint" />
            <mxPoint x="908" y="236" as="targetPoint" />
          </mxGeometry>
        </mxCell>
        <mxCell id="xJSxzTxG-TaLfhghDVZM-7" value="" style="endArrow=none;dashed=1;html=1;dashPattern=1 3;strokeWidth=2;rounded=0;entryX=0.5;entryY=1;entryDx=0;entryDy=0;" parent="1" source="xJSxzTxG-TaLfhghDVZM-18" edge="1">
          <mxGeometry width="50" height="50" relative="1" as="geometry">
            <mxPoint x="1086" y="728" as="sourcePoint" />
            <mxPoint x="1086" y="236" as="targetPoint" />
          </mxGeometry>
        </mxCell>
        <mxCell id="xJSxzTxG-TaLfhghDVZM-8" value="" style="endArrow=none;dashed=1;html=1;dashPattern=1 3;strokeWidth=2;rounded=0;entryX=0.5;entryY=1;entryDx=0;entryDy=0;" parent="1" source="xJSxzTxG-TaLfhghDVZM-14" edge="1">
          <mxGeometry width="50" height="50" relative="1" as="geometry">
            <mxPoint x="1254.29" y="728" as="sourcePoint" />
            <mxPoint x="1254.29" y="236" as="targetPoint" />
          </mxGeometry>
        </mxCell>
        <mxCell id="xJSxzTxG-TaLfhghDVZM-9" value="" style="endArrow=none;dashed=1;html=1;dashPattern=1 3;strokeWidth=2;rounded=0;entryX=0.5;entryY=1;entryDx=0;entryDy=0;" parent="1" source="xJSxzTxG-TaLfhghDVZM-20" edge="1">
          <mxGeometry width="50" height="50" relative="1" as="geometry">
            <mxPoint x="1433" y="726" as="sourcePoint" />
            <mxPoint x="1433" y="234" as="targetPoint" />
          </mxGeometry>
        </mxCell>
        <mxCell id="xJSxzTxG-TaLfhghDVZM-11" value="" style="endArrow=none;dashed=1;html=1;dashPattern=1 3;strokeWidth=2;rounded=0;entryX=0.5;entryY=1;entryDx=0;entryDy=0;" parent="1" target="xJSxzTxG-TaLfhghDVZM-10" edge="1">
          <mxGeometry width="50" height="50" relative="1" as="geometry">
            <mxPoint x="908" y="728" as="sourcePoint" />
            <mxPoint x="908" y="236" as="targetPoint" />
          </mxGeometry>
        </mxCell>
        <mxCell id="xJSxzTxG-TaLfhghDVZM-10" value="" style="rounded=0;whiteSpace=wrap;html=1;" parent="1" vertex="1">
          <mxGeometry x="903" y="288" width="10" height="418" as="geometry" />
        </mxCell>
        <mxCell id="xJSxzTxG-TaLfhghDVZM-12" value="" style="endArrow=classic;html=1;rounded=0;exitX=1;exitY=0;exitDx=0;exitDy=0;entryX=0.004;entryY=0.034;entryDx=0;entryDy=0;entryPerimeter=0;" parent="1" source="xJSxzTxG-TaLfhghDVZM-10" edge="1" target="xJSxzTxG-TaLfhghDVZM-18">
          <mxGeometry width="50" height="50" relative="1" as="geometry">
            <mxPoint x="804" y="505" as="sourcePoint" />
            <mxPoint x="1090" y="288" as="targetPoint" />
          </mxGeometry>
        </mxCell>
        <mxCell id="xJSxzTxG-TaLfhghDVZM-13" value="" style="endArrow=classicThin;dashed=1;html=1;dashPattern=1 3;strokeWidth=2;rounded=0;endFill=1;entryX=1.186;entryY=0.944;entryDx=0;entryDy=0;entryPerimeter=0;" parent="1" target="xJSxzTxG-TaLfhghDVZM-14" edge="1">
          <mxGeometry width="50" height="50" relative="1" as="geometry">
            <mxPoint x="1575" y="688" as="sourcePoint" />
            <mxPoint x="1269" y="688" as="targetPoint" />
          </mxGeometry>
        </mxCell>
        <mxCell id="xJSxzTxG-TaLfhghDVZM-15" value="" style="endArrow=none;dashed=1;html=1;dashPattern=1 3;strokeWidth=2;rounded=0;entryX=0.5;entryY=1;entryDx=0;entryDy=0;" parent="1" target="xJSxzTxG-TaLfhghDVZM-14" edge="1">
          <mxGeometry width="50" height="50" relative="1" as="geometry">
            <mxPoint x="1255" y="667" as="sourcePoint" />
            <mxPoint x="1254.29" y="236" as="targetPoint" />
          </mxGeometry>
        </mxCell>
        <mxCell id="xJSxzTxG-TaLfhghDVZM-14" value="" style="rounded=0;whiteSpace=wrap;html=1;" parent="1" vertex="1">
          <mxGeometry x="1250" y="301" width="10" height="408" as="geometry" />
        </mxCell>
        <mxCell id="xJSxzTxG-TaLfhghDVZM-16" value="" style="endArrow=classic;html=1;rounded=0;entryX=-0.024;entryY=0.053;entryDx=0;entryDy=0;entryPerimeter=0;" parent="1" target="xJSxzTxG-TaLfhghDVZM-14" edge="1">
          <mxGeometry width="50" height="50" relative="1" as="geometry">
            <mxPoint x="1091" y="320" as="sourcePoint" />
            <mxPoint x="1261" y="321" as="targetPoint" />
          </mxGeometry>
        </mxCell>
        <mxCell id="xJSxzTxG-TaLfhghDVZM-19" value="" style="endArrow=none;dashed=1;html=1;dashPattern=1 3;strokeWidth=2;rounded=0;entryX=0.5;entryY=1;entryDx=0;entryDy=0;" parent="1" target="xJSxzTxG-TaLfhghDVZM-18" edge="1">
          <mxGeometry width="50" height="50" relative="1" as="geometry">
            <mxPoint x="1088" y="529" as="sourcePoint" />
            <mxPoint x="1086" y="236" as="targetPoint" />
          </mxGeometry>
        </mxCell>
        <mxCell id="xJSxzTxG-TaLfhghDVZM-18" value="" style="rounded=0;whiteSpace=wrap;html=1;" parent="1" vertex="1">
          <mxGeometry x="1083" y="286" width="10" height="83" as="geometry" />
        </mxCell>
        <mxCell id="xJSxzTxG-TaLfhghDVZM-21" value="" style="endArrow=none;dashed=1;html=1;dashPattern=1 3;strokeWidth=2;rounded=0;entryX=0.5;entryY=1;entryDx=0;entryDy=0;" parent="1" target="xJSxzTxG-TaLfhghDVZM-20" edge="1">
          <mxGeometry width="50" height="50" relative="1" as="geometry">
            <mxPoint x="1434" y="550" as="sourcePoint" />
            <mxPoint x="1433" y="234" as="targetPoint" />
          </mxGeometry>
        </mxCell>
        <mxCell id="xJSxzTxG-TaLfhghDVZM-20" value="" style="rounded=0;whiteSpace=wrap;html=1;" parent="1" vertex="1">
          <mxGeometry x="1429" y="334" width="10" height="127" as="geometry" />
        </mxCell>
        <mxCell id="xJSxzTxG-TaLfhghDVZM-22" value="" style="endArrow=classic;html=1;rounded=0;" parent="1" edge="1">
          <mxGeometry width="50" height="50" relative="1" as="geometry">
            <mxPoint x="1260" y="349.5" as="sourcePoint" />
            <mxPoint x="1428" y="351" as="targetPoint" />
          </mxGeometry>
        </mxCell>
        <mxCell id="xJSxzTxG-TaLfhghDVZM-23" value="" style="endArrow=classic;dashed=1;html=1;dashPattern=1 3;strokeWidth=2;rounded=0;endFill=1;entryX=0.954;entryY=0.371;entryDx=0;entryDy=0;entryPerimeter=0;exitX=-0.107;exitY=0.902;exitDx=0;exitDy=0;exitPerimeter=0;" parent="1" source="xJSxzTxG-TaLfhghDVZM-20" target="xJSxzTxG-TaLfhghDVZM-14" edge="1">
          <mxGeometry width="50" height="50" relative="1" as="geometry">
            <mxPoint x="1333" y="436" as="sourcePoint" />
            <mxPoint x="1383" y="386" as="targetPoint" />
          </mxGeometry>
        </mxCell>
        <mxCell id="xJSxzTxG-TaLfhghDVZM-24" value="&lt;b&gt;Слушатель&lt;/b&gt;" style="rounded=0;whiteSpace=wrap;html=1;" parent="1" vertex="1">
          <mxGeometry x="1511" y="190" width="140" height="30" as="geometry" />
        </mxCell>
        <mxCell id="xJSxzTxG-TaLfhghDVZM-25" value="" style="endArrow=none;dashed=1;html=1;dashPattern=1 3;strokeWidth=2;rounded=0;entryX=0.5;entryY=1;entryDx=0;entryDy=0;" parent="1" target="xJSxzTxG-TaLfhghDVZM-24" edge="1">
          <mxGeometry width="50" height="50" relative="1" as="geometry">
            <mxPoint x="1581" y="724" as="sourcePoint" />
            <mxPoint x="1587" y="269" as="targetPoint" />
          </mxGeometry>
        </mxCell>
        <mxCell id="xJSxzTxG-TaLfhghDVZM-26" value="" style="rounded=0;whiteSpace=wrap;html=1;" parent="1" vertex="1">
          <mxGeometry x="1576" y="560" width="10" height="127" as="geometry" />
        </mxCell>
        <mxCell id="xJSxzTxG-TaLfhghDVZM-27" value="" style="endArrow=classic;html=1;rounded=0;exitX=1.022;exitY=0.81;exitDx=0;exitDy=0;exitPerimeter=0;entryX=0.069;entryY=0.557;entryDx=0;entryDy=0;entryPerimeter=0;" parent="1" source="xJSxzTxG-TaLfhghDVZM-14" target="xJSxzTxG-TaLfhghDVZM-26" edge="1">
          <mxGeometry width="50" height="50" relative="1" as="geometry">
            <mxPoint x="1277" y="633" as="sourcePoint" />
            <mxPoint x="1445" y="634.5" as="targetPoint" />
          </mxGeometry>
        </mxCell>
        <mxCell id="xJSxzTxG-TaLfhghDVZM-28" value="Запрос на запись на семинар" style="text;html=1;align=center;verticalAlign=middle;whiteSpace=wrap;rounded=0;" parent="1" vertex="1">
          <mxGeometry x="913" y="258" width="170" height="30" as="geometry" />
        </mxCell>
        <mxCell id="xJSxzTxG-TaLfhghDVZM-29" value="Передача данных о студенте" style="text;html=1;align=center;verticalAlign=middle;whiteSpace=wrap;rounded=0;" parent="1" vertex="1">
          <mxGeometry x="1097" y="288" width="144" height="30" as="geometry" />
        </mxCell>
        <mxCell id="xJSxzTxG-TaLfhghDVZM-31" value="Сообщение о результате записи" style="text;html=1;align=center;verticalAlign=middle;whiteSpace=wrap;rounded=0;" parent="1" vertex="1">
          <mxGeometry x="1341" y="650" width="120" height="29" as="geometry" />
        </mxCell>
        <mxCell id="xJSxzTxG-TaLfhghDVZM-32" value="Запрос списка пройдённых студентом семинаров" style="text;html=1;align=center;verticalAlign=middle;whiteSpace=wrap;rounded=0;" parent="1" vertex="1">
          <mxGeometry x="1259" y="318" width="180" height="30" as="geometry" />
        </mxCell>
        <mxCell id="xJSxzTxG-TaLfhghDVZM-34" value="Список пройденных студентом семинаров" style="text;html=1;align=center;verticalAlign=middle;whiteSpace=wrap;rounded=0;" parent="1" vertex="1">
          <mxGeometry x="1279" y="410" width="140" height="30" as="geometry" />
        </mxCell>
        <mxCell id="xJSxzTxG-TaLfhghDVZM-35" value="Передать статус подготовленности" style="text;html=1;align=center;verticalAlign=middle;whiteSpace=wrap;rounded=0;" parent="1" vertex="1">
          <mxGeometry x="1361" y="595" width="120" height="30" as="geometry" />
        </mxCell>
        <mxCell id="xJSxzTxG-TaLfhghDVZM-36" value="" style="endArrow=classic;html=1;rounded=0;" parent="1" edge="1">
          <mxGeometry width="50" height="50" relative="1" as="geometry">
            <mxPoint x="904.5" y="912.5" as="sourcePoint" />
            <mxPoint x="1044.5" y="912.5" as="targetPoint" />
          </mxGeometry>
        </mxCell>
        <mxCell id="xJSxzTxG-TaLfhghDVZM-37" value="" style="endArrow=classic;html=1;rounded=0;" parent="1" edge="1">
          <mxGeometry width="50" height="50" relative="1" as="geometry">
            <mxPoint x="1044.5" y="952.5" as="sourcePoint" />
            <mxPoint x="904.5" y="952.5" as="targetPoint" />
          </mxGeometry>
        </mxCell>
        <mxCell id="xJSxzTxG-TaLfhghDVZM-38" value="Администратор" style="shape=umlActor;verticalLabelPosition=bottom;verticalAlign=top;html=1;outlineConnect=0;" parent="1" vertex="1">
          <mxGeometry x="862" y="902.5" width="30" height="60" as="geometry" />
        </mxCell>
        <mxCell id="xJSxzTxG-TaLfhghDVZM-39" value="" style="endArrow=none;html=1;rounded=0;" parent="1" edge="1">
          <mxGeometry width="50" height="50" relative="1" as="geometry">
            <mxPoint x="904.5" y="932.5" as="sourcePoint" />
            <mxPoint x="1044.5" y="932.5" as="targetPoint" />
          </mxGeometry>
        </mxCell>
        <mxCell id="xJSxzTxG-TaLfhghDVZM-40" value="&lt;span style=&quot;text-wrap-mode: nowrap; color: rgba(0, 0, 0, 0); font-family: monospace; font-size: 0px; text-align: start;&quot;&gt;%3CmxGraphModel%3E%3Croot%3E%3CmxCell%20id%3D%220%22%2F%3E%3CmxCell%20id%3D%221%22%20parent%3D%220%22%2F%3E%3CmxCell%20id%3D%222%22%20value%3D%22%22%20style%3D%22rounded%3D0%3BwhiteSpace%3Dwrap%3Bhtml%3D1%3B%22%20vertex%3D%221%22%20parent%3D%221%22%3E%3CmxGeometry%20x%3D%22495%22%20y%3D%22400%22%20width%3D%2210%22%20height%3D%2280%22%20as%3D%22geometry%22%2F%3E%3C%2FmxCell%3E%3C%2Froot%3E%3C%2FmxGraphModel%3E&lt;/span&gt;&lt;span style=&quot;text-wrap-mode: nowrap;&quot;&gt;1.Запрос на запись&amp;nbsp;&lt;/span&gt;&lt;div&gt;&lt;span style=&quot;text-wrap-mode: nowrap;&quot;&gt;на семинар&lt;/span&gt;&lt;/div&gt;" style="text;html=1;align=center;verticalAlign=middle;whiteSpace=wrap;rounded=0;" parent="1" vertex="1">
          <mxGeometry x="903" y="880" width="153" height="30" as="geometry" />
        </mxCell>
        <mxCell id="xJSxzTxG-TaLfhghDVZM-41" value="8.Сообщение результата записи" style="text;html=1;align=center;verticalAlign=middle;whiteSpace=wrap;rounded=0;" parent="1" vertex="1">
          <mxGeometry x="917" y="952.5" width="127.5" height="40" as="geometry" />
        </mxCell>
        <mxCell id="xJSxzTxG-TaLfhghDVZM-42" value="Форма записи на семинар" style="shape=umlBoundary;whiteSpace=wrap;html=1;" parent="1" vertex="1">
          <mxGeometry x="1065" y="892.5" width="100" height="80" as="geometry" />
        </mxCell>
        <mxCell id="xJSxzTxG-TaLfhghDVZM-48" value="" style="endArrow=classic;html=1;rounded=0;" parent="1" edge="1">
          <mxGeometry width="50" height="50" relative="1" as="geometry">
            <mxPoint x="1174" y="917.5" as="sourcePoint" />
            <mxPoint x="1314" y="917.5" as="targetPoint" />
          </mxGeometry>
        </mxCell>
        <mxCell id="xJSxzTxG-TaLfhghDVZM-49" value="" style="endArrow=classic;html=1;rounded=0;" parent="1" edge="1">
          <mxGeometry width="50" height="50" relative="1" as="geometry">
            <mxPoint x="1314" y="957.5" as="sourcePoint" />
            <mxPoint x="1174" y="957.5" as="targetPoint" />
          </mxGeometry>
        </mxCell>
        <mxCell id="xJSxzTxG-TaLfhghDVZM-50" value="" style="endArrow=none;html=1;rounded=0;" parent="1" edge="1">
          <mxGeometry width="50" height="50" relative="1" as="geometry">
            <mxPoint x="1174" y="937.5" as="sourcePoint" />
            <mxPoint x="1314" y="937.5" as="targetPoint" />
          </mxGeometry>
        </mxCell>
        <mxCell id="xJSxzTxG-TaLfhghDVZM-51" value="&lt;span style=&quot;text-wrap-mode: nowrap; color: rgba(0, 0, 0, 0); font-family: monospace; font-size: 0px; text-align: start;&quot;&gt;%3CmxGraphModel%3E%3Croot%3E%3CmxCell%20id%3D%220%22%2F%3E%3CmxCell%20id%3D%221%22%20parent%3D%220%22%2F%3E%3CmxCell%20id%3D%222%22%20value%3D%22%22%20style%3D%22rounded%3D0%3BwhiteSpace%3Dwrap%3Bhtml%3D1%3B%22%20vertex%3D%221%22%20parent%3D%221%22%3E%3CmxGeometry%20x%3D%22495%22%20y%3D%22400%22%20width%3D%2210%22%20height%3D%2280%22%20as%3D%22geometry%22%2F%3E%3C%2FmxCell%3E%3C%2Froot%3E%3C%2FmxGraphModel%3E2&lt;/span&gt;&lt;span style=&quot;text-wrap-mode: nowrap;&quot;&gt;2.Передать данные&lt;/span&gt;&lt;div&gt;&lt;span style=&quot;text-wrap-mode: nowrap;&quot;&gt;&amp;nbsp;о студенте&lt;/span&gt;&lt;/div&gt;" style="text;html=1;align=center;verticalAlign=middle;whiteSpace=wrap;rounded=0;" parent="1" vertex="1">
          <mxGeometry x="1186.5" y="887.5" width="110" height="30" as="geometry" />
        </mxCell>
        <mxCell id="xJSxzTxG-TaLfhghDVZM-52" value="7.Статус попытки записи на приём" style="text;html=1;align=center;verticalAlign=middle;whiteSpace=wrap;rounded=0;" parent="1" vertex="1">
          <mxGeometry x="1186.5" y="957.5" width="127.5" height="40" as="geometry" />
        </mxCell>
        <mxCell id="xJSxzTxG-TaLfhghDVZM-53" value="Менеджер записи на семинары" style="ellipse;shape=umlControl;whiteSpace=wrap;html=1;" parent="1" vertex="1">
          <mxGeometry x="1325" y="892.5" width="70" height="80" as="geometry" />
        </mxCell>
        <mxCell id="xJSxzTxG-TaLfhghDVZM-54" value="Семинары" style="ellipse;shape=umlEntity;whiteSpace=wrap;html=1;" parent="1" vertex="1">
          <mxGeometry x="1550" y="892.5" width="80" height="80" as="geometry" />
        </mxCell>
        <mxCell id="xJSxzTxG-TaLfhghDVZM-55" value="" style="endArrow=classic;html=1;rounded=0;" parent="1" edge="1">
          <mxGeometry width="50" height="50" relative="1" as="geometry">
            <mxPoint x="1400" y="915" as="sourcePoint" />
            <mxPoint x="1540" y="915" as="targetPoint" />
          </mxGeometry>
        </mxCell>
        <mxCell id="xJSxzTxG-TaLfhghDVZM-56" value="" style="endArrow=classic;html=1;rounded=0;" parent="1" edge="1">
          <mxGeometry width="50" height="50" relative="1" as="geometry">
            <mxPoint x="1540" y="955" as="sourcePoint" />
            <mxPoint x="1400" y="955" as="targetPoint" />
          </mxGeometry>
        </mxCell>
        <mxCell id="xJSxzTxG-TaLfhghDVZM-57" value="" style="endArrow=none;html=1;rounded=0;" parent="1" edge="1">
          <mxGeometry width="50" height="50" relative="1" as="geometry">
            <mxPoint x="1400" y="935" as="sourcePoint" />
            <mxPoint x="1540" y="935" as="targetPoint" />
          </mxGeometry>
        </mxCell>
        <mxCell id="xJSxzTxG-TaLfhghDVZM-58" value="&lt;span style=&quot;text-wrap-mode: nowrap; color: rgba(0, 0, 0, 0); font-family: monospace; font-size: 0px; text-align: start;&quot;&gt;%3CmxGraphModel%3E%3Croot%3E%3CmxCell%20id%3D%220%22%2F%3E%3CmxCell%20id%3D%221%22%20parent%3D%220%22%2F%3E%3CmxCell%20id%3D%222%22%20value%3D%22%22%20style%3D%22rounded%3D0%3BwhiteSpace%3Dwrap%3Bhtml%3D1%3B%22%20vertex%3D%221%22%20parent%3D%221%22%3E%3CmxGeometry%20x%3D%22495%22%20y%3D%22400%22%20width%3D%2210%22%20height%3D%2280%22%20as%3D%22geometry%22%2F%3E%3C%2FmxCell%3E%3C%2Froot%3E%3C%2FmxGraphModel%3E&lt;/span&gt;&lt;span style=&quot;text-wrap-mode: nowrap;&quot;&gt;3.Запрос списка&amp;nbsp;&lt;/span&gt;&lt;div&gt;&lt;span style=&quot;text-wrap-mode: nowrap;&quot;&gt;пройденных&lt;/span&gt;&lt;/div&gt;" style="text;html=1;align=center;verticalAlign=middle;whiteSpace=wrap;rounded=0;" parent="1" vertex="1">
          <mxGeometry x="1412.5" y="880" width="110" height="30" as="geometry" />
        </mxCell>
        <mxCell id="xJSxzTxG-TaLfhghDVZM-59" value="4.Список пройденных&lt;div&gt;студентом семинаров&lt;/div&gt;" style="text;html=1;align=center;verticalAlign=middle;whiteSpace=wrap;rounded=0;" parent="1" vertex="1">
          <mxGeometry x="1412.5" y="955" width="127.5" height="40" as="geometry" />
        </mxCell>
        <mxCell id="xJSxzTxG-TaLfhghDVZM-63" value="" style="endArrow=classic;html=1;rounded=0;" parent="1" edge="1">
          <mxGeometry width="50" height="50" relative="1" as="geometry">
            <mxPoint x="1384.52" y="990" as="sourcePoint" />
            <mxPoint x="1384.52" y="1070" as="targetPoint" />
          </mxGeometry>
        </mxCell>
        <mxCell id="xJSxzTxG-TaLfhghDVZM-64" value="" style="endArrow=none;html=1;rounded=0;" parent="1" edge="1">
          <mxGeometry width="50" height="50" relative="1" as="geometry">
            <mxPoint x="1359.52" y="1070" as="sourcePoint" />
            <mxPoint x="1359.29" y="990" as="targetPoint" />
          </mxGeometry>
        </mxCell>
        <mxCell id="xJSxzTxG-TaLfhghDVZM-66" value="Слушатель" style="html=1;whiteSpace=wrap;" parent="1" vertex="1">
          <mxGeometry x="1309" y="1085" width="110" height="50" as="geometry" />
        </mxCell>
        <mxCell id="xJSxzTxG-TaLfhghDVZM-67" value="5.Передать статус&amp;nbsp;&lt;div&gt;подготовлелности&lt;/div&gt;" style="text;html=1;align=center;verticalAlign=middle;resizable=0;points=[];autosize=1;strokeColor=none;fillColor=none;" parent="1" vertex="1">
          <mxGeometry x="1395" y="1020" width="130" height="40" as="geometry" />
        </mxCell>
        <mxCell id="DIc7p7oEbnYsG--LW7nY-1" value="Администратор" style="shape=umlActor;verticalLabelPosition=bottom;verticalAlign=top;html=1;outlineConnect=0;" parent="1" vertex="1">
          <mxGeometry x="88" y="165" width="30" height="60" as="geometry" />
        </mxCell>
        <mxCell id="DIc7p7oEbnYsG--LW7nY-2" value="Система" style="ellipse;shape=umlControl;whiteSpace=wrap;html=1;" parent="1" vertex="1">
          <mxGeometry x="260" y="156" width="70" height="80" as="geometry" />
        </mxCell>
        <mxCell id="DIc7p7oEbnYsG--LW7nY-3" value="Актёр" style="shape=umlActor;verticalLabelPosition=bottom;verticalAlign=top;html=1;outlineConnect=0;" parent="1" vertex="1">
          <mxGeometry x="485" y="160" width="30" height="60" as="geometry" />
        </mxCell>
        <mxCell id="DIc7p7oEbnYsG--LW7nY-5" value="Зритель" style="shape=umlActor;verticalLabelPosition=bottom;verticalAlign=top;html=1;outlineConnect=0;" parent="1" vertex="1">
          <mxGeometry x="681" y="160" width="30" height="60" as="geometry" />
        </mxCell>
        <mxCell id="DIc7p7oEbnYsG--LW7nY-6" value="Студент" style="shape=umlActor;verticalLabelPosition=bottom;verticalAlign=top;html=1;" parent="1" vertex="1">
          <mxGeometry x="893" y="146" width="30" height="60" as="geometry" />
        </mxCell>
        <mxCell id="DIc7p7oEbnYsG--LW7nY-8" value="Форма записи на семинар" style="shape=umlBoundary;whiteSpace=wrap;html=1;" parent="1" vertex="1">
          <mxGeometry x="1032" y="150" width="100" height="80" as="geometry" />
        </mxCell>
        <mxCell id="DIc7p7oEbnYsG--LW7nY-9" value="Менеджер записи на семинары" style="ellipse;shape=umlControl;whiteSpace=wrap;html=1;" parent="1" vertex="1">
          <mxGeometry x="1220" y="150" width="70" height="80" as="geometry" />
        </mxCell>
        <mxCell id="-QemW-ZzyPI75f3-dNuS-1" value="Семинары" style="shape=cylinder3;whiteSpace=wrap;html=1;boundedLbl=1;backgroundOutline=1;size=15;" parent="1" vertex="1">
          <mxGeometry x="1404" y="145" width="60" height="80" as="geometry" />
        </mxCell>
        <mxCell id="-QemW-ZzyPI75f3-dNuS-2" value="" style="endArrow=none;dashed=1;html=1;dashPattern=1 3;strokeWidth=2;rounded=0;entryX=0.5;entryY=1;entryDx=0;entryDy=0;" parent="1" target="xJSxzTxG-TaLfhghDVZM-14" edge="1">
          <mxGeometry width="50" height="50" relative="1" as="geometry">
            <mxPoint x="1254" y="698" as="sourcePoint" />
            <mxPoint x="1290" y="572" as="targetPoint" />
          </mxGeometry>
        </mxCell>
        <mxCell id="-QemW-ZzyPI75f3-dNuS-3" value="" style="endArrow=classicThin;dashed=1;html=1;dashPattern=1 3;strokeWidth=2;rounded=0;endFill=1;entryX=1;entryY=0.985;entryDx=0;entryDy=0;entryPerimeter=0;" parent="1" target="xJSxzTxG-TaLfhghDVZM-10" edge="1">
          <mxGeometry width="50" height="50" relative="1" as="geometry">
            <mxPoint x="1250" y="681" as="sourcePoint" />
            <mxPoint x="933" y="679" as="targetPoint" />
          </mxGeometry>
        </mxCell>
        <mxCell id="-QemW-ZzyPI75f3-dNuS-5" value="Сообщение о результате записи" style="text;html=1;align=center;verticalAlign=middle;whiteSpace=wrap;rounded=0;" parent="1" vertex="1">
          <mxGeometry x="1016" y="643" width="120" height="29" as="geometry" />
        </mxCell>
        <mxCell id="7s_6bpgOeVNkU8TUFnK5-1" value="" style="endArrow=classic;html=1;rounded=0;entryX=1.012;entryY=0.881;entryDx=0;entryDy=0;entryPerimeter=0;" edge="1" parent="1" target="fU4kAHU2XoJDbtXaz-NY-9">
          <mxGeometry width="50" height="50" relative="1" as="geometry">
            <mxPoint x="494" y="457" as="sourcePoint" />
            <mxPoint x="381" y="416" as="targetPoint" />
          </mxGeometry>
        </mxCell>
        <mxCell id="7s_6bpgOeVNkU8TUFnK5-2" value="" style="endArrow=classic;html=1;rounded=0;entryX=1.01;entryY=0.128;entryDx=0;entryDy=0;entryPerimeter=0;" edge="1" parent="1" target="7s_6bpgOeVNkU8TUFnK5-3">
          <mxGeometry width="50" height="50" relative="1" as="geometry">
            <mxPoint x="493" y="513" as="sourcePoint" />
            <mxPoint x="296" y="510" as="targetPoint" />
            <Array as="points">
              <mxPoint x="420" y="513" />
            </Array>
          </mxGeometry>
        </mxCell>
        <mxCell id="7s_6bpgOeVNkU8TUFnK5-4" value="" style="endArrow=none;dashed=1;html=1;dashPattern=1 3;strokeWidth=2;rounded=0;entryX=0.5;entryY=1;entryDx=0;entryDy=0;exitX=0.5;exitY=0;exitDx=0;exitDy=0;" edge="1" parent="1" source="fU4kAHU2XoJDbtXaz-NY-39" target="7s_6bpgOeVNkU8TUFnK5-3">
          <mxGeometry width="50" height="50" relative="1" as="geometry">
            <mxPoint x="295" y="666" as="sourcePoint" />
            <mxPoint x="295" y="481" as="targetPoint" />
          </mxGeometry>
        </mxCell>
        <mxCell id="7s_6bpgOeVNkU8TUFnK5-3" value="" style="rounded=0;whiteSpace=wrap;html=1;" vertex="1" parent="1">
          <mxGeometry x="290" y="500" width="10" height="105" as="geometry" />
        </mxCell>
        <mxCell id="7s_6bpgOeVNkU8TUFnK5-5" value="Подтверждение" style="text;html=1;align=center;verticalAlign=middle;whiteSpace=wrap;rounded=0;" vertex="1" parent="1">
          <mxGeometry x="359" y="431" width="60" height="30" as="geometry" />
        </mxCell>
        <mxCell id="7s_6bpgOeVNkU8TUFnK5-6" value="Отказ" style="text;html=1;align=center;verticalAlign=middle;whiteSpace=wrap;rounded=0;" vertex="1" parent="1">
          <mxGeometry x="357" y="488" width="60" height="30" as="geometry" />
        </mxCell>
        <mxCell id="7s_6bpgOeVNkU8TUFnK5-8" value="" style="endArrow=classic;html=1;rounded=0;entryX=0.912;entryY=0.568;entryDx=0;entryDy=0;entryPerimeter=0;" edge="1" parent="1" target="7s_6bpgOeVNkU8TUFnK5-3">
          <mxGeometry width="50" height="50" relative="1" as="geometry">
            <mxPoint x="300" y="532" as="sourcePoint" />
            <mxPoint x="333" y="566" as="targetPoint" />
            <Array as="points">
              <mxPoint x="334" y="532" />
              <mxPoint x="334" y="559" />
            </Array>
          </mxGeometry>
        </mxCell>
        <mxCell id="7s_6bpgOeVNkU8TUFnK5-9" value="Внесение изменений в расписание" style="text;html=1;align=center;verticalAlign=middle;whiteSpace=wrap;rounded=0;" vertex="1" parent="1">
          <mxGeometry x="327" y="532" width="146" height="30" as="geometry" />
        </mxCell>
        <mxCell id="7s_6bpgOeVNkU8TUFnK5-10" value="alt&amp;nbsp;" style="shape=umlFrame;whiteSpace=wrap;html=1;pointerEvents=0;width=42;height=28;" vertex="1" parent="1">
          <mxGeometry x="-817" y="305" width="796" height="367" as="geometry" />
        </mxCell>
        <mxCell id="7s_6bpgOeVNkU8TUFnK5-11" value="" style="endArrow=none;dashed=1;html=1;rounded=0;exitX=0.001;exitY=0.476;exitDx=0;exitDy=0;exitPerimeter=0;entryX=0.999;entryY=0.482;entryDx=0;entryDy=0;entryPerimeter=0;" edge="1" parent="1" source="7s_6bpgOeVNkU8TUFnK5-10" target="7s_6bpgOeVNkU8TUFnK5-10">
          <mxGeometry width="50" height="50" relative="1" as="geometry">
            <mxPoint x="275" y="502" as="sourcePoint" />
            <mxPoint x="325" y="452" as="targetPoint" />
          </mxGeometry>
        </mxCell>
        <mxCell id="7s_6bpgOeVNkU8TUFnK5-17" value="" style="endArrow=classic;html=1;rounded=0;exitX=0.892;exitY=0.748;exitDx=0;exitDy=0;entryX=0.035;entryY=0.084;entryDx=0;entryDy=0;entryPerimeter=0;exitPerimeter=0;" edge="1" parent="1" source="fU4kAHU2XoJDbtXaz-NY-54" target="fU4kAHU2XoJDbtXaz-NY-39">
          <mxGeometry width="50" height="50" relative="1" as="geometry">
            <mxPoint x="258" y="687" as="sourcePoint" />
            <mxPoint x="308" y="637" as="targetPoint" />
          </mxGeometry>
        </mxCell>
        <mxCell id="7s_6bpgOeVNkU8TUFnK5-19" value="4.Утверждение созданного расписания" style="text;html=1;align=center;verticalAlign=middle;whiteSpace=wrap;rounded=0;" vertex="1" parent="1">
          <mxGeometry x="118" y="638" width="161" height="30" as="geometry" />
        </mxCell>
        <mxCell id="7s_6bpgOeVNkU8TUFnK5-20" value="Бэкэнд системы" style="ellipse;shape=umlControl;whiteSpace=wrap;html=1;" vertex="1" parent="1">
          <mxGeometry x="-312" y="150" width="70" height="80" as="geometry" />
        </mxCell>
        <mxCell id="7s_6bpgOeVNkU8TUFnK5-25" value="База данных&amp;nbsp;" style="shape=cylinder3;whiteSpace=wrap;html=1;boundedLbl=1;backgroundOutline=1;size=15;" vertex="1" parent="1">
          <mxGeometry x="-142" y="152" width="71" height="81" as="geometry" />
        </mxCell>
        <mxCell id="7s_6bpgOeVNkU8TUFnK5-26" value="Администратор" style="shape=umlActor;verticalLabelPosition=bottom;verticalAlign=top;html=1;outlineConnect=0;" vertex="1" parent="1">
          <mxGeometry x="-775" y="150" width="30" height="60" as="geometry" />
        </mxCell>
        <mxCell id="7s_6bpgOeVNkU8TUFnK5-28" value="Зритель" style="shape=umlActor;verticalLabelPosition=bottom;verticalAlign=top;html=1;outlineConnect=0;" vertex="1" parent="1">
          <mxGeometry x="-581" y="152" width="30" height="60" as="geometry" />
        </mxCell>
        <mxCell id="7s_6bpgOeVNkU8TUFnK5-31" value="" style="endArrow=none;dashed=1;html=1;dashPattern=1 3;strokeWidth=2;rounded=0;" edge="1" parent="1" source="7s_6bpgOeVNkU8TUFnK5-107">
          <mxGeometry width="50" height="50" relative="1" as="geometry">
            <mxPoint x="-765" y="979" as="sourcePoint" />
            <mxPoint x="-759" y="233" as="targetPoint" />
          </mxGeometry>
        </mxCell>
        <mxCell id="7s_6bpgOeVNkU8TUFnK5-32" value="" style="endArrow=none;dashed=1;html=1;dashPattern=1 3;strokeWidth=2;rounded=0;" edge="1" parent="1" source="7s_6bpgOeVNkU8TUFnK5-103">
          <mxGeometry width="50" height="50" relative="1" as="geometry">
            <mxPoint x="-277" y="967" as="sourcePoint" />
            <mxPoint x="-277.41999999999996" y="230" as="targetPoint" />
          </mxGeometry>
        </mxCell>
        <mxCell id="7s_6bpgOeVNkU8TUFnK5-33" value="" style="endArrow=none;dashed=1;html=1;dashPattern=1 3;strokeWidth=2;rounded=0;" edge="1" parent="1" source="7s_6bpgOeVNkU8TUFnK5-96">
          <mxGeometry width="50" height="50" relative="1" as="geometry">
            <mxPoint x="-446" y="881.544201078869" as="sourcePoint" />
            <mxPoint x="-439.42" y="229" as="targetPoint" />
          </mxGeometry>
        </mxCell>
        <mxCell id="7s_6bpgOeVNkU8TUFnK5-34" value="" style="endArrow=none;dashed=1;html=1;dashPattern=1 3;strokeWidth=2;rounded=0;" edge="1" parent="1" source="7s_6bpgOeVNkU8TUFnK5-111">
          <mxGeometry width="50" height="50" relative="1" as="geometry">
            <mxPoint x="-107" y="747" as="sourcePoint" />
            <mxPoint x="-106.92000000000002" y="232" as="targetPoint" />
          </mxGeometry>
        </mxCell>
        <mxCell id="7s_6bpgOeVNkU8TUFnK5-36" value="" style="endArrow=none;dashed=1;html=1;dashPattern=1 3;strokeWidth=2;rounded=0;" edge="1" parent="1" source="7s_6bpgOeVNkU8TUFnK5-121">
          <mxGeometry width="50" height="50" relative="1" as="geometry">
            <mxPoint x="-569" y="979" as="sourcePoint" />
            <mxPoint x="-566.42" y="232" as="targetPoint" />
          </mxGeometry>
        </mxCell>
        <mxCell id="7s_6bpgOeVNkU8TUFnK5-37" value="" style="endArrow=classic;html=1;rounded=0;" edge="1" parent="1">
          <mxGeometry width="50" height="50" relative="1" as="geometry">
            <mxPoint x="-760" y="263" as="sourcePoint" />
            <mxPoint x="-440" y="263" as="targetPoint" />
          </mxGeometry>
        </mxCell>
        <mxCell id="7s_6bpgOeVNkU8TUFnK5-39" value="" style="endArrow=classic;html=1;rounded=0;" edge="1" parent="1">
          <mxGeometry width="50" height="50" relative="1" as="geometry">
            <mxPoint x="-439" y="293" as="sourcePoint" />
            <mxPoint x="-276" y="293" as="targetPoint" />
          </mxGeometry>
        </mxCell>
        <mxCell id="7s_6bpgOeVNkU8TUFnK5-40" value="" style="endArrow=classic;html=1;rounded=0;" edge="1" parent="1">
          <mxGeometry width="50" height="50" relative="1" as="geometry">
            <mxPoint x="-277" y="337" as="sourcePoint" />
            <mxPoint x="-108" y="337" as="targetPoint" />
          </mxGeometry>
        </mxCell>
        <mxCell id="7s_6bpgOeVNkU8TUFnK5-41" value="" style="endArrow=classicThin;dashed=1;html=1;dashPattern=1 3;strokeWidth=2;rounded=0;endFill=1;" edge="1" parent="1">
          <mxGeometry width="50" height="50" relative="1" as="geometry">
            <mxPoint x="-111" y="369" as="sourcePoint" />
            <mxPoint x="-277" y="369" as="targetPoint" />
          </mxGeometry>
        </mxCell>
        <mxCell id="7s_6bpgOeVNkU8TUFnK5-43" value="" style="endArrow=classicThin;dashed=1;html=1;dashPattern=1 3;strokeWidth=2;rounded=0;endFill=1;" edge="1" parent="1">
          <mxGeometry width="50" height="50" relative="1" as="geometry">
            <mxPoint x="-276" y="458" as="sourcePoint" />
            <mxPoint x="-442" y="458" as="targetPoint" />
            <Array as="points">
              <mxPoint x="-361" y="458" />
            </Array>
          </mxGeometry>
        </mxCell>
        <mxCell id="7s_6bpgOeVNkU8TUFnK5-46" value="" style="endArrow=classic;html=1;rounded=0;" edge="1" parent="1">
          <mxGeometry width="50" height="50" relative="1" as="geometry">
            <mxPoint x="-278" y="415" as="sourcePoint" />
            <mxPoint x="-109" y="414" as="targetPoint" />
          </mxGeometry>
        </mxCell>
        <mxCell id="7s_6bpgOeVNkU8TUFnK5-47" value="" style="endArrow=classicThin;dashed=1;html=1;dashPattern=1 3;strokeWidth=2;rounded=0;endFill=1;" edge="1" parent="1">
          <mxGeometry width="50" height="50" relative="1" as="geometry">
            <mxPoint x="-110" y="439.39" as="sourcePoint" />
            <mxPoint x="-276" y="439.39" as="targetPoint" />
          </mxGeometry>
        </mxCell>
        <mxCell id="7s_6bpgOeVNkU8TUFnK5-50" value="" style="endArrow=classicThin;dashed=1;html=1;dashPattern=1 3;strokeWidth=2;rounded=0;endFill=1;" edge="1" parent="1">
          <mxGeometry width="50" height="50" relative="1" as="geometry">
            <mxPoint x="-110" y="595.64" as="sourcePoint" />
            <mxPoint x="-276" y="595.64" as="targetPoint" />
          </mxGeometry>
        </mxCell>
        <mxCell id="7s_6bpgOeVNkU8TUFnK5-53" value="1.Запрос на создание расписания" style="text;html=1;align=center;verticalAlign=middle;whiteSpace=wrap;rounded=0;" vertex="1" parent="1">
          <mxGeometry x="-735" y="233" width="222" height="30" as="geometry" />
        </mxCell>
        <mxCell id="7s_6bpgOeVNkU8TUFnK5-54" value="2.Отправка данных" style="text;html=1;align=center;verticalAlign=middle;whiteSpace=wrap;rounded=0;" vertex="1" parent="1">
          <mxGeometry x="-395" y="258" width="60" height="30" as="geometry" />
        </mxCell>
        <mxCell id="7s_6bpgOeVNkU8TUFnK5-55" value="3.Проверка занятости актёра" style="text;html=1;align=center;verticalAlign=middle;whiteSpace=wrap;rounded=0;" vertex="1" parent="1">
          <mxGeometry x="-256" y="307" width="129" height="30" as="geometry" />
        </mxCell>
        <mxCell id="7s_6bpgOeVNkU8TUFnK5-57" value="4.Подтверждение доступности" style="text;html=1;align=center;verticalAlign=middle;whiteSpace=wrap;rounded=0;" vertex="1" parent="1">
          <mxGeometry x="-256" y="339" width="129" height="30" as="geometry" />
        </mxCell>
        <mxCell id="7s_6bpgOeVNkU8TUFnK5-58" value="5.Сохрание расписания" style="text;html=1;align=center;verticalAlign=middle;whiteSpace=wrap;rounded=0;" vertex="1" parent="1">
          <mxGeometry x="-268" y="385" width="148" height="30" as="geometry" />
        </mxCell>
        <mxCell id="7s_6bpgOeVNkU8TUFnK5-59" value="6.Успешное сохранение" style="text;html=1;align=center;verticalAlign=middle;whiteSpace=wrap;rounded=0;" vertex="1" parent="1">
          <mxGeometry x="-266.5" y="415" width="150" height="30" as="geometry" />
        </mxCell>
        <mxCell id="7s_6bpgOeVNkU8TUFnK5-60" value="7.Расписание сохранено" style="text;html=1;align=center;verticalAlign=middle;whiteSpace=wrap;rounded=0;" vertex="1" parent="1">
          <mxGeometry x="-430" y="424" width="143" height="30" as="geometry" />
        </mxCell>
        <mxCell id="7s_6bpgOeVNkU8TUFnK5-63" value="" style="endArrow=classic;html=1;rounded=0;" edge="1" parent="1">
          <mxGeometry width="50" height="50" relative="1" as="geometry">
            <mxPoint x="-278.5" y="543" as="sourcePoint" />
            <mxPoint x="-109.5" y="543" as="targetPoint" />
          </mxGeometry>
        </mxCell>
        <mxCell id="7s_6bpgOeVNkU8TUFnK5-64" value="3.Проверка занятости актёра" style="text;html=1;align=center;verticalAlign=middle;whiteSpace=wrap;rounded=0;" vertex="1" parent="1">
          <mxGeometry x="-257.5" y="513" width="129" height="30" as="geometry" />
        </mxCell>
        <mxCell id="7s_6bpgOeVNkU8TUFnK5-65" value="4.Актёр уже занят" style="text;html=1;align=center;verticalAlign=middle;whiteSpace=wrap;rounded=0;" vertex="1" parent="1">
          <mxGeometry x="-252.5" y="570" width="124" height="30" as="geometry" />
        </mxCell>
        <mxCell id="7s_6bpgOeVNkU8TUFnK5-69" value="" style="endArrow=classic;html=1;rounded=0;entryX=0.912;entryY=0.568;entryDx=0;entryDy=0;entryPerimeter=0;" edge="1" parent="1">
          <mxGeometry width="50" height="50" relative="1" as="geometry">
            <mxPoint x="-439.12" y="630" as="sourcePoint" />
            <mxPoint x="-440.0000000000001" y="657.6399999999999" as="targetPoint" />
            <Array as="points">
              <mxPoint x="-405.12" y="630" />
              <mxPoint x="-405.12" y="657" />
            </Array>
          </mxGeometry>
        </mxCell>
        <mxCell id="7s_6bpgOeVNkU8TUFnK5-70" value="6.Внесение изменений в расписание" style="text;html=1;align=center;verticalAlign=middle;whiteSpace=wrap;rounded=0;" vertex="1" parent="1">
          <mxGeometry x="-403.5" y="625" width="77" height="30" as="geometry" />
        </mxCell>
        <mxCell id="7s_6bpgOeVNkU8TUFnK5-71" value="" style="endArrow=classicThin;dashed=1;html=1;dashPattern=1 3;strokeWidth=2;rounded=0;endFill=1;" edge="1" parent="1">
          <mxGeometry width="50" height="50" relative="1" as="geometry">
            <mxPoint x="-275.5" y="605" as="sourcePoint" />
            <mxPoint x="-441.5" y="605" as="targetPoint" />
          </mxGeometry>
        </mxCell>
        <mxCell id="7s_6bpgOeVNkU8TUFnK5-72" value="" style="endArrow=none;dashed=1;html=1;dashPattern=1 3;strokeWidth=2;rounded=0;" edge="1" parent="1" source="7s_6bpgOeVNkU8TUFnK5-118" target="7s_6bpgOeVNkU8TUFnK5-68">
          <mxGeometry width="50" height="50" relative="1" as="geometry">
            <mxPoint x="-446" y="975" as="sourcePoint" />
            <mxPoint x="-439.42" y="229" as="targetPoint" />
          </mxGeometry>
        </mxCell>
        <mxCell id="7s_6bpgOeVNkU8TUFnK5-68" value="" style="rounded=0;whiteSpace=wrap;html=1;" vertex="1" parent="1">
          <mxGeometry x="-450" y="568.5" width="10" height="139.5" as="geometry" />
        </mxCell>
        <mxCell id="7s_6bpgOeVNkU8TUFnK5-73" value="5.Ошибка, актёр недоступен" style="text;html=1;align=center;verticalAlign=middle;whiteSpace=wrap;rounded=0;" vertex="1" parent="1">
          <mxGeometry x="-427.5" y="568.5" width="138" height="30" as="geometry" />
        </mxCell>
        <mxCell id="7s_6bpgOeVNkU8TUFnK5-75" value="8.Уведомление об успехе" style="text;html=1;align=center;verticalAlign=middle;whiteSpace=wrap;rounded=0;" vertex="1" parent="1">
          <mxGeometry x="-709" y="672" width="200" height="30" as="geometry" />
        </mxCell>
        <mxCell id="7s_6bpgOeVNkU8TUFnK5-76" value="" style="endArrow=classicThin;dashed=1;html=1;dashPattern=1 3;strokeWidth=2;rounded=0;endFill=1;" edge="1" parent="1">
          <mxGeometry width="50" height="50" relative="1" as="geometry">
            <mxPoint x="-446.5" y="701.16" as="sourcePoint" />
            <mxPoint x="-755.5" y="701" as="targetPoint" />
          </mxGeometry>
        </mxCell>
        <mxCell id="7s_6bpgOeVNkU8TUFnK5-77" value="" style="endArrow=classic;html=1;rounded=0;exitX=0.942;exitY=0.024;exitDx=0;exitDy=0;exitPerimeter=0;" edge="1" parent="1" source="7s_6bpgOeVNkU8TUFnK5-116">
          <mxGeometry width="50" height="50" relative="1" as="geometry">
            <mxPoint x="-762" y="748" as="sourcePoint" />
            <mxPoint x="-449" y="747" as="targetPoint" />
          </mxGeometry>
        </mxCell>
        <mxCell id="7s_6bpgOeVNkU8TUFnK5-78" value="9.Утверждение созданного расписания" style="text;html=1;align=center;verticalAlign=middle;whiteSpace=wrap;rounded=0;" vertex="1" parent="1">
          <mxGeometry x="-727" y="714" width="236" height="30" as="geometry" />
        </mxCell>
        <mxCell id="7s_6bpgOeVNkU8TUFnK5-79" value="" style="endArrow=classic;html=1;rounded=0;exitX=0.892;exitY=0.748;exitDx=0;exitDy=0;exitPerimeter=0;" edge="1" parent="1">
          <mxGeometry width="50" height="50" relative="1" as="geometry">
            <mxPoint x="-446" y="761" as="sourcePoint" />
            <mxPoint x="-279" y="760" as="targetPoint" />
          </mxGeometry>
        </mxCell>
        <mxCell id="7s_6bpgOeVNkU8TUFnK5-80" value="10.Сообщение об утверждении расписания" style="text;html=1;align=center;verticalAlign=middle;whiteSpace=wrap;rounded=0;" vertex="1" parent="1">
          <mxGeometry x="-436.5" y="721" width="156" height="30" as="geometry" />
        </mxCell>
        <mxCell id="7s_6bpgOeVNkU8TUFnK5-82" value="" style="endArrow=open;html=1;strokeWidth=1;rounded=0;endFill=0;" edge="1" parent="1">
          <mxGeometry width="50" height="50" relative="1" as="geometry">
            <mxPoint x="-280.5" y="820" as="sourcePoint" />
            <mxPoint x="-443" y="820" as="targetPoint" />
          </mxGeometry>
        </mxCell>
        <mxCell id="7s_6bpgOeVNkU8TUFnK5-83" value="11.Уведомление о спектакле" style="text;html=1;align=center;verticalAlign=middle;whiteSpace=wrap;rounded=0;" vertex="1" parent="1">
          <mxGeometry x="-469.5" y="786" width="217" height="30" as="geometry" />
        </mxCell>
        <mxCell id="7s_6bpgOeVNkU8TUFnK5-85" value="13.Отзыв о спектакле" style="text;html=1;align=center;verticalAlign=middle;whiteSpace=wrap;rounded=0;" vertex="1" parent="1">
          <mxGeometry x="-633" y="833" width="262" height="30" as="geometry" />
        </mxCell>
        <mxCell id="7s_6bpgOeVNkU8TUFnK5-87" value="17.Отправка отзыва о спектакле" style="text;html=1;align=center;verticalAlign=middle;whiteSpace=wrap;rounded=0;" vertex="1" parent="1">
          <mxGeometry x="-420.75" y="910" width="118.5" height="31.5" as="geometry" />
        </mxCell>
        <mxCell id="7s_6bpgOeVNkU8TUFnK5-88" value="" style="endArrow=classicThin;dashed=1;html=1;dashPattern=1 3;strokeWidth=2;rounded=0;endFill=1;" edge="1" parent="1">
          <mxGeometry width="50" height="50" relative="1" as="geometry">
            <mxPoint x="-277" y="946" as="sourcePoint" />
            <mxPoint x="-446" y="946" as="targetPoint" />
          </mxGeometry>
        </mxCell>
        <mxCell id="7s_6bpgOeVNkU8TUFnK5-91" value="" style="endArrow=open;html=1;strokeWidth=1;rounded=0;endFill=0;" edge="1" parent="1">
          <mxGeometry width="50" height="50" relative="1" as="geometry">
            <mxPoint x="-446" y="887.5" as="sourcePoint" />
            <mxPoint x="-277" y="888" as="targetPoint" />
          </mxGeometry>
        </mxCell>
        <mxCell id="7s_6bpgOeVNkU8TUFnK5-92" value="14.Отзыв о спектакле" style="text;html=1;align=center;verticalAlign=middle;whiteSpace=wrap;rounded=0;" vertex="1" parent="1">
          <mxGeometry x="-427.5" y="855.5" width="132" height="24.5" as="geometry" />
        </mxCell>
        <mxCell id="7s_6bpgOeVNkU8TUFnK5-93" value="18.Отправка отзыва о спектакле" style="text;html=1;align=center;verticalAlign=middle;whiteSpace=wrap;rounded=0;" vertex="1" parent="1">
          <mxGeometry x="-726.5" y="924.25" width="209.5" height="31.5" as="geometry" />
        </mxCell>
        <mxCell id="7s_6bpgOeVNkU8TUFnK5-94" value="" style="endArrow=classicThin;dashed=1;html=1;dashPattern=1 3;strokeWidth=2;rounded=0;endFill=1;" edge="1" parent="1">
          <mxGeometry width="50" height="50" relative="1" as="geometry">
            <mxPoint x="-447" y="961.81" as="sourcePoint" />
            <mxPoint x="-765" y="962" as="targetPoint" />
          </mxGeometry>
        </mxCell>
        <mxCell id="7s_6bpgOeVNkU8TUFnK5-97" value="" style="endArrow=none;dashed=1;html=1;dashPattern=1 3;strokeWidth=2;rounded=0;" edge="1" parent="1" source="7s_6bpgOeVNkU8TUFnK5-105" target="7s_6bpgOeVNkU8TUFnK5-96">
          <mxGeometry width="50" height="50" relative="1" as="geometry">
            <mxPoint x="-444" y="569" as="sourcePoint" />
            <mxPoint x="-439.42" y="229" as="targetPoint" />
          </mxGeometry>
        </mxCell>
        <mxCell id="7s_6bpgOeVNkU8TUFnK5-96" value="" style="rounded=0;whiteSpace=wrap;html=1;" vertex="1" parent="1">
          <mxGeometry x="-444" y="258" width="10" height="39" as="geometry" />
        </mxCell>
        <mxCell id="7s_6bpgOeVNkU8TUFnK5-99" value="" style="rounded=0;whiteSpace=wrap;html=1;" vertex="1" parent="1">
          <mxGeometry x="-280.5" y="288" width="10" height="94" as="geometry" />
        </mxCell>
        <mxCell id="7s_6bpgOeVNkU8TUFnK5-100" value="" style="rounded=0;whiteSpace=wrap;html=1;" vertex="1" parent="1">
          <mxGeometry x="-111.5" y="333" width="10" height="39" as="geometry" />
        </mxCell>
        <mxCell id="7s_6bpgOeVNkU8TUFnK5-101" value="" style="rounded=0;whiteSpace=wrap;html=1;" vertex="1" parent="1">
          <mxGeometry x="-111.5" y="410" width="10" height="39" as="geometry" />
        </mxCell>
        <mxCell id="7s_6bpgOeVNkU8TUFnK5-104" value="" style="endArrow=none;dashed=1;html=1;dashPattern=1 3;strokeWidth=2;rounded=0;" edge="1" parent="1" source="7s_6bpgOeVNkU8TUFnK5-114" target="7s_6bpgOeVNkU8TUFnK5-103">
          <mxGeometry width="50" height="50" relative="1" as="geometry">
            <mxPoint x="-277" y="967" as="sourcePoint" />
            <mxPoint x="-277.41999999999996" y="230" as="targetPoint" />
          </mxGeometry>
        </mxCell>
        <mxCell id="7s_6bpgOeVNkU8TUFnK5-103" value="" style="rounded=0;whiteSpace=wrap;html=1;" vertex="1" parent="1">
          <mxGeometry x="-282" y="410" width="10" height="56" as="geometry" />
        </mxCell>
        <mxCell id="7s_6bpgOeVNkU8TUFnK5-106" value="" style="endArrow=none;dashed=1;html=1;dashPattern=1 3;strokeWidth=2;rounded=0;" edge="1" parent="1" source="7s_6bpgOeVNkU8TUFnK5-68" target="7s_6bpgOeVNkU8TUFnK5-105">
          <mxGeometry width="50" height="50" relative="1" as="geometry">
            <mxPoint x="-444" y="569" as="sourcePoint" />
            <mxPoint x="-439" y="297" as="targetPoint" />
          </mxGeometry>
        </mxCell>
        <mxCell id="7s_6bpgOeVNkU8TUFnK5-105" value="" style="rounded=0;whiteSpace=wrap;html=1;" vertex="1" parent="1">
          <mxGeometry x="-446.5" y="454" width="10" height="28" as="geometry" />
        </mxCell>
        <mxCell id="7s_6bpgOeVNkU8TUFnK5-108" value="" style="endArrow=none;dashed=1;html=1;dashPattern=1 3;strokeWidth=2;rounded=0;" edge="1" parent="1" target="7s_6bpgOeVNkU8TUFnK5-107">
          <mxGeometry width="50" height="50" relative="1" as="geometry">
            <mxPoint x="-761.9487179487179" y="658.5" as="sourcePoint" />
            <mxPoint x="-759" y="233" as="targetPoint" />
          </mxGeometry>
        </mxCell>
        <mxCell id="7s_6bpgOeVNkU8TUFnK5-107" value="" style="rounded=0;whiteSpace=wrap;html=1;" vertex="1" parent="1">
          <mxGeometry x="-765" y="261" width="10" height="454" as="geometry" />
        </mxCell>
        <mxCell id="7s_6bpgOeVNkU8TUFnK5-110" value="" style="endArrow=none;dashed=1;html=1;dashPattern=1 3;strokeWidth=2;rounded=0;" edge="1" parent="1">
          <mxGeometry width="50" height="50" relative="1" as="geometry">
            <mxPoint x="-765" y="979" as="sourcePoint" />
            <mxPoint x="-762.0718849840256" y="673.5" as="targetPoint" />
          </mxGeometry>
        </mxCell>
        <mxCell id="7s_6bpgOeVNkU8TUFnK5-113" value="" style="endArrow=none;dashed=1;html=1;dashPattern=1 3;strokeWidth=2;rounded=0;" edge="1" parent="1" source="7s_6bpgOeVNkU8TUFnK5-136" target="7s_6bpgOeVNkU8TUFnK5-111">
          <mxGeometry width="50" height="50" relative="1" as="geometry">
            <mxPoint x="-107" y="951" as="sourcePoint" />
            <mxPoint x="-106.92000000000002" y="232" as="targetPoint" />
          </mxGeometry>
        </mxCell>
        <mxCell id="7s_6bpgOeVNkU8TUFnK5-111" value="" style="rounded=0;whiteSpace=wrap;html=1;" vertex="1" parent="1">
          <mxGeometry x="-111.5" y="539.5" width="10" height="59.5" as="geometry" />
        </mxCell>
        <mxCell id="7s_6bpgOeVNkU8TUFnK5-115" value="" style="endArrow=none;dashed=1;html=1;dashPattern=1 3;strokeWidth=2;rounded=0;" edge="1" parent="1" source="7s_6bpgOeVNkU8TUFnK5-125" target="7s_6bpgOeVNkU8TUFnK5-114">
          <mxGeometry width="50" height="50" relative="1" as="geometry">
            <mxPoint x="-277" y="967" as="sourcePoint" />
            <mxPoint x="-277" y="466" as="targetPoint" />
          </mxGeometry>
        </mxCell>
        <mxCell id="7s_6bpgOeVNkU8TUFnK5-114" value="" style="rounded=0;whiteSpace=wrap;html=1;" vertex="1" parent="1">
          <mxGeometry x="-282" y="536" width="10" height="77" as="geometry" />
        </mxCell>
        <mxCell id="7s_6bpgOeVNkU8TUFnK5-117" value="" style="endArrow=classic;html=1;rounded=0;exitX=0.892;exitY=0.748;exitDx=0;exitDy=0;exitPerimeter=0;" edge="1" parent="1" target="7s_6bpgOeVNkU8TUFnK5-116">
          <mxGeometry width="50" height="50" relative="1" as="geometry">
            <mxPoint x="-762" y="748" as="sourcePoint" />
            <mxPoint x="-449" y="747" as="targetPoint" />
          </mxGeometry>
        </mxCell>
        <mxCell id="7s_6bpgOeVNkU8TUFnK5-116" value="" style="rounded=0;whiteSpace=wrap;html=1;" vertex="1" parent="1">
          <mxGeometry x="-767" y="742" width="10" height="227" as="geometry" />
        </mxCell>
        <mxCell id="7s_6bpgOeVNkU8TUFnK5-119" value="" style="endArrow=none;dashed=1;html=1;dashPattern=1 3;strokeWidth=2;rounded=0;" edge="1" parent="1" source="7s_6bpgOeVNkU8TUFnK5-123" target="7s_6bpgOeVNkU8TUFnK5-118">
          <mxGeometry width="50" height="50" relative="1" as="geometry">
            <mxPoint x="-446" y="975" as="sourcePoint" />
            <mxPoint x="-445" y="674" as="targetPoint" />
          </mxGeometry>
        </mxCell>
        <mxCell id="7s_6bpgOeVNkU8TUFnK5-118" value="" style="rounded=0;whiteSpace=wrap;html=1;" vertex="1" parent="1">
          <mxGeometry x="-450" y="742" width="10" height="24" as="geometry" />
        </mxCell>
        <mxCell id="7s_6bpgOeVNkU8TUFnK5-120" value="" style="rounded=0;whiteSpace=wrap;html=1;" vertex="1" parent="1">
          <mxGeometry x="-280.5" y="757" width="10" height="70" as="geometry" />
        </mxCell>
        <mxCell id="7s_6bpgOeVNkU8TUFnK5-122" value="" style="endArrow=none;dashed=1;html=1;dashPattern=1 3;strokeWidth=2;rounded=0;" edge="1" parent="1" target="7s_6bpgOeVNkU8TUFnK5-121">
          <mxGeometry width="50" height="50" relative="1" as="geometry">
            <mxPoint x="-569" y="979" as="sourcePoint" />
            <mxPoint x="-566.42" y="232" as="targetPoint" />
          </mxGeometry>
        </mxCell>
        <mxCell id="7s_6bpgOeVNkU8TUFnK5-121" value="" style="rounded=0;whiteSpace=wrap;html=1;" vertex="1" parent="1">
          <mxGeometry x="-574" y="816" width="10" height="58" as="geometry" />
        </mxCell>
        <mxCell id="7s_6bpgOeVNkU8TUFnK5-124" value="" style="endArrow=none;dashed=1;html=1;dashPattern=1 3;strokeWidth=2;rounded=0;" edge="1" parent="1" target="7s_6bpgOeVNkU8TUFnK5-123">
          <mxGeometry width="50" height="50" relative="1" as="geometry">
            <mxPoint x="-446" y="975" as="sourcePoint" />
            <mxPoint x="-445" y="766" as="targetPoint" />
          </mxGeometry>
        </mxCell>
        <mxCell id="7s_6bpgOeVNkU8TUFnK5-123" value="" style="rounded=0;whiteSpace=wrap;html=1;" vertex="1" parent="1">
          <mxGeometry x="-450" y="857" width="10" height="111" as="geometry" />
        </mxCell>
        <mxCell id="7s_6bpgOeVNkU8TUFnK5-126" value="" style="endArrow=none;dashed=1;html=1;dashPattern=1 3;strokeWidth=2;rounded=0;" edge="1" parent="1" target="7s_6bpgOeVNkU8TUFnK5-125">
          <mxGeometry width="50" height="50" relative="1" as="geometry">
            <mxPoint x="-277" y="967" as="sourcePoint" />
            <mxPoint x="-277" y="613" as="targetPoint" />
          </mxGeometry>
        </mxCell>
        <mxCell id="7s_6bpgOeVNkU8TUFnK5-125" value="" style="rounded=0;whiteSpace=wrap;html=1;" vertex="1" parent="1">
          <mxGeometry x="-280.5" y="878.5" width="10" height="76.5" as="geometry" />
        </mxCell>
        <mxCell id="7s_6bpgOeVNkU8TUFnK5-16" value="&lt;span style=&quot;font-size: 9px;&quot;&gt;Система подтвердила недоступность актёра&lt;/span&gt;" style="text;html=1;align=center;verticalAlign=middle;whiteSpace=wrap;rounded=0;" vertex="1" parent="1">
          <mxGeometry x="-827" y="488" width="122" height="30" as="geometry" />
        </mxCell>
        <mxCell id="7s_6bpgOeVNkU8TUFnK5-13" value="&lt;font style=&quot;font-size: 9px;&quot;&gt;Система подтвердила доступность актёра&lt;/font&gt;" style="text;html=1;align=center;verticalAlign=middle;whiteSpace=wrap;rounded=0;" vertex="1" parent="1">
          <mxGeometry x="-817" y="334" width="102" height="30" as="geometry" />
        </mxCell>
        <mxCell id="7s_6bpgOeVNkU8TUFnK5-129" value="Фронтенд системы" style="shape=umlBoundary;whiteSpace=wrap;html=1;" vertex="1" parent="1">
          <mxGeometry x="-495" y="155" width="100" height="80" as="geometry" />
        </mxCell>
        <mxCell id="7s_6bpgOeVNkU8TUFnK5-130" value="" style="endArrow=classicThin;html=1;strokeWidth=1;rounded=0;endFill=1;entryX=0.976;entryY=0.196;entryDx=0;entryDy=0;entryPerimeter=0;" edge="1" parent="1" target="7s_6bpgOeVNkU8TUFnK5-121">
          <mxGeometry width="50" height="50" relative="1" as="geometry">
            <mxPoint x="-445" y="827" as="sourcePoint" />
            <mxPoint x="-599" y="827" as="targetPoint" />
            <Array as="points">
              <mxPoint x="-504" y="827" />
            </Array>
          </mxGeometry>
        </mxCell>
        <mxCell id="7s_6bpgOeVNkU8TUFnK5-131" value="12.Уведомление о спектакле" style="text;html=1;align=center;verticalAlign=middle;whiteSpace=wrap;rounded=0;" vertex="1" parent="1">
          <mxGeometry x="-579" y="795" width="135" height="30" as="geometry" />
        </mxCell>
        <mxCell id="7s_6bpgOeVNkU8TUFnK5-135" value="" style="endArrow=classic;html=1;rounded=0;exitX=0.942;exitY=0.024;exitDx=0;exitDy=0;exitPerimeter=0;entryX=0.043;entryY=0.097;entryDx=0;entryDy=0;entryPerimeter=0;dashed=1;" edge="1" parent="1" target="7s_6bpgOeVNkU8TUFnK5-123">
          <mxGeometry width="50" height="50" relative="1" as="geometry">
            <mxPoint x="-564" y="867.41" as="sourcePoint" />
            <mxPoint x="-255" y="867.41" as="targetPoint" />
          </mxGeometry>
        </mxCell>
        <mxCell id="7s_6bpgOeVNkU8TUFnK5-137" value="" style="endArrow=none;dashed=1;html=1;dashPattern=1 3;strokeWidth=2;rounded=0;" edge="1" parent="1" target="7s_6bpgOeVNkU8TUFnK5-136">
          <mxGeometry width="50" height="50" relative="1" as="geometry">
            <mxPoint x="-107" y="951" as="sourcePoint" />
            <mxPoint x="-107" y="599" as="targetPoint" />
          </mxGeometry>
        </mxCell>
        <mxCell id="7s_6bpgOeVNkU8TUFnK5-136" value="" style="rounded=0;whiteSpace=wrap;html=1;" vertex="1" parent="1">
          <mxGeometry x="-111.5" y="883" width="10" height="60.25" as="geometry" />
        </mxCell>
        <mxCell id="7s_6bpgOeVNkU8TUFnK5-138" value="" style="endArrow=open;html=1;strokeWidth=1;rounded=0;endFill=0;" edge="1" parent="1">
          <mxGeometry width="50" height="50" relative="1" as="geometry">
            <mxPoint x="-270.5" y="901.93" as="sourcePoint" />
            <mxPoint x="-114" y="902" as="targetPoint" />
          </mxGeometry>
        </mxCell>
        <mxCell id="7s_6bpgOeVNkU8TUFnK5-139" value="15.Отзыв о спектакле" style="text;html=1;align=center;verticalAlign=middle;whiteSpace=wrap;rounded=0;" vertex="1" parent="1">
          <mxGeometry x="-252" y="869.93" width="132" height="24.5" as="geometry" />
        </mxCell>
        <mxCell id="7s_6bpgOeVNkU8TUFnK5-140" value="16.Отправка отзыва о спектакле" style="text;html=1;align=center;verticalAlign=middle;whiteSpace=wrap;rounded=0;" vertex="1" parent="1">
          <mxGeometry x="-246.75" y="907.5" width="118.5" height="31.5" as="geometry" />
        </mxCell>
        <mxCell id="7s_6bpgOeVNkU8TUFnK5-141" value="" style="endArrow=classicThin;dashed=1;html=1;dashPattern=1 3;strokeWidth=2;rounded=0;endFill=1;" edge="1" parent="1">
          <mxGeometry width="50" height="50" relative="1" as="geometry">
            <mxPoint x="-103" y="943.5" as="sourcePoint" />
            <mxPoint x="-272" y="943.5" as="targetPoint" />
          </mxGeometry>
        </mxCell>
      </root>
    </mxGraphModel>
  </diagram>
</mxfile>
